<?xml version="1.0" encoding="utf-8"?>
<!-- Generator: Adobe Illustrator 25.0.0, SVG Export Plug-In . SVG Version: 6.00 Build 0)  -->
<svg version="1.1" id="Layer_1" xmlns="http://www.w3.org/2000/svg" xmlns:xlink="http://www.w3.org/1999/xlink" x="0px" y="0px"
	 viewBox="0 0 199.03 196.45" style="enable-background:new 0 0 199.03 196.45;" xml:space="preserve">
<style type="text/css">
	.st0{fill:#FDFDFE;}
</style>
<g>
	<path class="st0" d="M99.54,196.45c-36.49-0.98-64.85-16.45-85.43-46.36c-2.58-3.74-2.68-6.96-0.52-10.87
		c9.91-18.02,24.86-29.07,44.98-33.18c3.85-0.79,7.17,0.05,10.61,2.22c20.18,12.71,40.52,12.77,60.7-0.04
		c3.21-2.04,6.42-2.97,10.09-2.25c20.59,4.06,35.73,15.42,45.79,33.82c1.89,3.46,1.48,6.11-0.62,9.25
		C164.65,179.6,136.07,195.36,99.54,196.45z"/>
	<path class="st0" d="M150.41,51.17c-0.08,28.12-23.21,51.08-51.24,50.88c-27.77-0.2-50.71-23.26-50.69-50.99
		C48.49,22.9,71.42-0.02,99.55,0C127.74,0.02,150.49,22.91,150.41,51.17z"/>
</g>
</svg>
