<?xml version="1.0" encoding="utf-8"?>
<!-- Generator: Adobe Illustrator 25.0.0, SVG Export Plug-In . SVG Version: 6.00 Build 0)  -->
<svg version="1.1" id="Layer_1" xmlns="http://www.w3.org/2000/svg" xmlns:xlink="http://www.w3.org/1999/xlink" x="0px" y="0px"
	 viewBox="0 0 199.03 196.45" style="enable-background:new 0 0 199.03 196.45;" xml:space="preserve">
<style type="text/css">
	.st0{fill:#FAFBFD;}
</style>
<g>
	<path class="st0" d="M107.62,57.27c0-13.77-0.02-27.54,0-41.31c0.02-10,5.69-15.84,15.64-15.87c19.49-0.07,38.98-0.06,58.47,0
		c9.89,0.03,15.77,5.98,15.77,15.78c0.01,27.84,0.01,55.69,0,83.53c0,9.04-6.03,15.15-15.1,15.18c-19.99,0.05-39.98,0.05-59.96,0
		c-8.89-0.02-14.82-6.15-14.82-15.1C107.62,85.41,107.62,71.34,107.62,57.27z"/>
	<path class="st0" d="M1.52,138.9c0-13.87,0-27.74,0-41.61c0-9.65,5.66-15.39,15.35-15.42c19.89-0.05,39.77-0.04,59.66,0
		c8.72,0.02,14.77,6.05,14.79,14.83c0.05,28.14,0.04,56.28,0,84.43c-0.01,9-5.72,15.07-14.83,15.16
		c-19.98,0.19-39.97,0.22-59.95-0.01c-9.68-0.11-15.01-6.04-15.02-15.78C1.51,166.64,1.52,152.77,1.52,138.9z"/>
	<path class="st0" d="M46.16,65.67c-9.74,0-19.49,0.03-29.23-0.01c-9.43-0.03-15.4-6.03-15.41-15.44c-0.01-11.56-0.03-23.11,0-34.67
		c0.03-9.32,5.5-15.31,14.8-15.4c20.09-0.2,40.18-0.18,60.26-0.01c8.99,0.08,14.71,6.24,14.74,15.25c0.04,11.66,0.04,23.32,0,34.97
		C91.29,59.53,85.16,65.64,76,65.66C66.05,65.69,56.11,65.67,46.16,65.67z"/>
	<path class="st0" d="M152.43,130.85c9.84,0,19.69-0.02,29.53,0.01c9.62,0.02,15.53,5.97,15.55,15.65c0.02,11.36,0.02,22.71,0,34.07
		c-0.01,9.48-5.49,15.6-14.89,15.71c-20.08,0.23-40.17,0.23-60.25,0c-9.31-0.11-14.72-6.15-14.74-15.49
		c-0.02-11.46-0.03-22.91,0-34.37c0.03-9.79,5.8-15.54,15.58-15.56C132.95,130.83,142.69,130.85,152.43,130.85z"/>
</g>
</svg>
