<?xml version="1.0" encoding="utf-8"?>
<!-- Generator: Adobe Illustrator 25.0.0, SVG Export Plug-In . SVG Version: 6.00 Build 0)  -->
<svg version="1.1" id="Layer_1" xmlns="http://www.w3.org/2000/svg" xmlns:xlink="http://www.w3.org/1999/xlink" x="0px" y="0px"
	 viewBox="0 0 199.03 196.45" style="enable-background:new 0 0 199.03 196.45;" xml:space="preserve">
<style type="text/css">
	.st0{fill:#FFFFFF;}
</style>
<g>
	<path class="st0" d="M186.05,160.43c-7.77-2.38-16.92,0.03-20.4,7.16c-3.09,6.34-7.34,7.32-13.21,6.63
		c-1.16-0.14-2.36-0.02-3.53-0.02c0-0.01,0-0.01,0-0.01c-3.31,0-6.61,0.07-9.91-0.01c-4.13-0.11-5.02-0.98-5.06-5.05
		c-0.06-7.43,0.06-14.87-0.07-22.29c-0.06-3.08,0.7-5.69,2.41-8.28c7.35-11.21,11.1-23.63,11.75-36.99
		c0.25-5.04-0.62-5.98-5.47-5.99c-18.41-0.03-36.81,0.02-55.22-0.05c-2.84-0.01-4.91,0.98-6.77,3.08
		c-4.62,5.2-9.36,10.29-14.07,15.42c-11.97,13.03-23.92,26.08-35.95,39.05c-2.13,2.3-2.39,3.82,0.51,5.81
		c16.86,11.52,35.29,15.96,55.47,12.63c11.97-1.98,22.81-6.68,32.4-14.18c0.88-0.69,1.75-1.99,3.02-1.36
		c1.24,0.62,0.79,2.1,0.81,3.23c0.06,3.53,0.02,7.07,0.04,10.61c0.05,9.95,5.65,15.5,15.62,15.51c6.61,0.01,13.22,0.18,19.82-0.06
		c3.38-0.12,5.55,0.77,7.6,3.7c4.69,6.69,13.18,9.06,20.83,6.43c7.27-2.49,12.62-10.33,12.35-18.08
		C198.75,169.77,193.28,162.64,186.05,160.43z M180.47,185.02c-4.1-0.02-7.19-3.06-7.2-7.07c-0.01-3.78,3.41-7.16,7.27-7.16
		c3.87,0,7.19,3.36,7.17,7.23C187.69,182.06,184.6,185.05,180.47,185.02z"/>
	<path class="st0" d="M77.43,57.39c0-8.85,0.02-17.7-0.01-26.54c-0.02-5.85-1.12-6.88-6.87-6.47c-20.55,1.48-37.93,9.47-51.92,24.83
		c-24.29,26.66-24.94,69.91-1.27,97c3.09,3.54,3.58,3.6,6.84,0.05c16.9-18.42,33.75-36.9,50.68-55.29c1.81-1.97,2.6-4.04,2.58-6.68
		C77.37,75.32,77.42,66.36,77.43,57.39z"/>
	<path class="st0" d="M198.47,14.07c-2.28-8.54-8.57-13.78-16.89-14.06c-8.82-0.29-15.9,4.29-18.46,11.96
		c-2.7,8.07,0,17.26,7.3,21.41c4.06,2.31,5.04,5.09,4.67,9.15c-0.14,1.52-0.07,3.07-0.13,4.59c-0.09,2.56-1.43,3.9-4.01,3.92
		c-2.83,0.03-5.66-0.05-8.49,0.06c-2.46,0.1-3.79-1.05-4.89-3.21C145.16,23.64,125.3,10.51,98.13,8.42c-5.22-0.4-6.27,0.48-6.28,5.8
		c-0.05,19.68-0.07,39.37-0.04,59.05c0.01,5.7,2.3,8.01,7.94,8.06c9.9,0.08,19.81,0.02,29.71,0.02c0,0.01,0,0.01,0,0.01
		c9.78,0,19.57,0.03,29.35-0.01c4.85-0.02,5.77-0.84,5.61-5.49c-0.11-3.41-0.47-6.82-1.01-10.19c-0.4-2.59,0.59-3.48,2.99-3.44
		c2,0.04,4.01,0.04,6.02-0.06c7.15-0.33,12.5-5.06,13.4-12.18c0.41-3.26,0.45-6.58,0.33-9.88c-0.11-2.95,0.97-4.67,3.6-6.15
		C196.87,30.01,200.44,21.47,198.47,14.07z M180.64,25.38c-3.94,0.07-7.24-3.12-7.31-7.09c-0.08-3.99,3.04-7.24,7.04-7.31
		c3.94-0.06,7.25,3.12,7.33,7.07C187.79,21.97,184.57,25.31,180.64,25.38z"/>
</g>
</svg>
