<svg  viewBox="0 0 43 45" fill="none" xmlns="http://www.w3.org/2000/svg">
<path d="M19.4687 28.4687L28.125 19.8125L26.7812 18.4688L19.4687 25.7812L15.6875 22L14.375 23.3125L19.4687 28.4687ZM11.875 35C11.3542 35 10.9115 34.8177 10.5469 34.4531C10.1823 34.0885 10 33.6458 10 33.125V14.375C10 13.8542 10.1823 13.4115 10.5469 13.0469C10.9115 12.6823 11.3542 12.5 11.875 12.5H18.2812C18.3854 11.7708 18.7188 11.1719 19.2813 10.7031C19.8438 10.2344 20.5 10 21.25 10C22 10 22.6562 10.2344 23.2187 10.7031C23.7812 11.1719 24.1146 11.7708 24.2188 12.5H30.625C31.1458 12.5 31.5885 12.6823 31.9531 13.0469C32.3177 13.4115 32.5 13.8542 32.5 14.375V33.125C32.5 33.6458 32.3177 34.0885 31.9531 34.4531C31.5885 34.8177 31.1458 35 30.625 35H11.875ZM11.875 33.125H30.625V14.375H11.875V33.125ZM21.25 13.8437C21.5417 13.8437 21.7969 13.7344 22.0156 13.5156C22.2344 13.2969 22.3438 13.0417 22.3438 12.75C22.3438 12.4583 22.2344 12.2031 22.0156 11.9844C21.7969 11.7656 21.5417 11.6563 21.25 11.6563C20.9583 11.6563 20.7031 11.7656 20.4844 11.9844C20.2656 12.2031 20.1562 12.4583 20.1562 12.75C20.1562 13.0417 20.2656 13.2969 20.4844 13.5156C20.7031 13.7344 20.9583 13.8437 21.25 13.8437ZM11.875 33.125V14.375V33.125Z" fill="white"/>
</svg>
