<svg width="45" height="45" viewBox="0 0 45 45" fill="none" xmlns="http://www.w3.org/2000/svg">
<path d="M13.125 11.5625C12.7106 11.5625 12.3132 11.7271 12.0201 12.0201C11.7271 12.3132 11.5625 12.7106 11.5625 13.125V31.875C11.5625 32.2894 11.7271 32.6868 12.0201 32.9799C12.3132 33.2729 12.7106 33.4375 13.125 33.4375H31.875C32.2894 33.4375 32.6868 33.2729 32.9799 32.9799C33.2729 32.6868 33.4375 32.2894 33.4375 31.875V13.125C33.4375 12.7106 33.2729 12.3132 32.9799 12.0201C32.6868 11.7271 32.2894 11.5625 31.875 11.5625H24.8438C24.4293 11.5625 24.0319 11.7271 23.7389 12.0201C23.4459 12.3132 23.2812 12.7106 23.2812 13.125V24.5203L27.4156 20.3844C27.5623 20.2377 27.7613 20.1553 27.9688 20.1553C28.1762 20.1553 28.3752 20.2377 28.5219 20.3844C28.6686 20.5311 28.751 20.73 28.751 20.9375C28.751 21.145 28.6686 21.3439 28.5219 21.4906L23.0531 26.9594C22.9806 27.0321 22.8943 27.0899 22.7994 27.1292C22.7045 27.1686 22.6028 27.1889 22.5 27.1889C22.3972 27.1889 22.2955 27.1686 22.2006 27.1292C22.1057 27.0899 22.0194 27.0321 21.9469 26.9594L16.4781 21.4906C16.4055 21.418 16.3479 21.3318 16.3086 21.2368C16.2692 21.1419 16.249 21.0402 16.249 20.9375C16.249 20.8348 16.2692 20.7331 16.3086 20.6382C16.3479 20.5432 16.4055 20.457 16.4781 20.3844C16.5508 20.3117 16.637 20.2541 16.7319 20.2148C16.8268 20.1755 16.9285 20.1553 17.0312 20.1553C17.134 20.1553 17.2357 20.1755 17.3306 20.2148C17.4255 20.2541 17.5117 20.3117 17.5844 20.3844L21.7188 24.5203V13.125C21.7188 12.2962 22.048 11.5013 22.634 10.9153C23.2201 10.3292 24.0149 10 24.8438 10H31.875C32.7038 10 33.4987 10.3292 34.0847 10.9153C34.6708 11.5013 35 12.2962 35 13.125V31.875C35 32.7038 34.6708 33.4987 34.0847 34.0847C33.4987 34.6708 32.7038 35 31.875 35H13.125C12.2962 35 11.5013 34.6708 10.9153 34.0847C10.3292 33.4987 10 32.7038 10 31.875V13.125C10 12.2962 10.3292 11.5013 10.9153 10.9153C11.5013 10.3292 12.2962 10 13.125 10H17.0312C17.2385 10 17.4372 10.0823 17.5837 10.2288C17.7302 10.3753 17.8125 10.574 17.8125 10.7812C17.8125 10.9885 17.7302 11.1872 17.5837 11.3337C17.4372 11.4802 17.2385 11.5625 17.0312 11.5625H13.125Z" fill="white"/>
</svg>
